<?xml version="1.0" encoding="UTF-8" standalone="no"?>
<svg width="349.25mm" height="107.597mm"
 viewBox="0 0 990 305"
 xmlns="http://www.w3.org/2000/svg" xmlns:xlink="http://www.w3.org/1999/xlink"  version="1.2" baseProfile="tiny">
<title>SVG Generator Example Drawing</title>
<desc>An SVG drawing created by the SVG Generator Example provided with Qt.</desc>
<defs>
</defs>
<g fill="none" stroke="black" stroke-width="1" fill-rule="evenodd" stroke-linecap="square" stroke-linejoin="bevel" >

<g fill="none" stroke="#000000" stroke-opacity="1" stroke-width="1" stroke-linecap="square" stroke-linejoin="bevel" transform="matrix(1,0,0,1,0,0)"
font-family="SimSun" font-size="9" font-weight="400" font-style="normal" 
>
</g>

<g fill="none" stroke="#000000" stroke-opacity="1" stroke-width="1" stroke-linecap="square" stroke-linejoin="bevel" transform="matrix(0.798952,0,0,0.798952,0.399476,135.023)"
font-family="SimSun" font-size="9" font-weight="400" font-style="normal" 
>
</g>

<g stroke="none" transform="matrix(0.798952,0,0,0.798952,0.399476,135.023)"
font-family="SimSun" font-size="9" font-weight="400" font-style="normal" 
>
<rect x="-0.5" y="-169" width="1238.5" height="381.75"/>
</g>

<g fill="none" stroke="#000000" stroke-opacity="1" stroke-width="1" stroke-linecap="square" stroke-linejoin="bevel" transform="matrix(0.798952,0,0,0.798952,0.399476,135.023)"
font-family="SimSun" font-size="9" font-weight="400" font-style="normal" 
>
</g>

<g fill="none" stroke="#000000" stroke-opacity="1" stroke-width="1" stroke-linecap="square" stroke-linejoin="bevel" transform="matrix(0.798952,0,0,0.798952,439.823,15.1801)"
font-family="SimSun" font-size="9" font-weight="400" font-style="normal" 
>
</g>

<g fill="none" stroke="#000000" stroke-opacity="1" stroke-width="1" stroke-linecap="square" stroke-linejoin="bevel" transform="matrix(0.798952,0,0,0.798952,439.823,15.1801)"
font-family="SimSun" font-size="9" font-weight="400" font-style="normal" 
>
</g>

<g fill="none" stroke="#000000" stroke-opacity="1" stroke-width="1" stroke-linecap="square" stroke-linejoin="bevel" transform="matrix(0.798952,0,0,0.798952,439.823,15.1801)"
font-family="SimSun" font-size="9" font-weight="400" font-style="normal" 
>
</g>

<g fill="#7f7f7f" fill-opacity="1" stroke="#000000" stroke-opacity="1" stroke-width="1" stroke-linecap="square" stroke-linejoin="bevel" transform="matrix(0.798952,0,0,0.798952,439.823,15.1801)"
font-family="SimSun" font-size="9" font-weight="400" font-style="normal" 
>
<path vector-effect="none" fill-rule="evenodd" d="M-109,-14.25 C-109,-16.8734 -106.873,-19 -104.25,-19 L104.25,-19 C106.873,-19 109,-16.8734 109,-14.25 L109,14.25 C109,16.8734 106.873,19 104.25,19 L-104.25,19 C-106.873,19 -109,16.8734 -109,14.25 L-109,-14.25"/>
</g>

<g fill="none" stroke="#000000" stroke-opacity="1" stroke-width="1" stroke-linecap="square" stroke-linejoin="bevel" transform="matrix(0.798952,0,0,0.798952,439.823,15.1801)"
font-family="SimSun" font-size="9" font-weight="400" font-style="normal" 
>
</g>

<g fill="none" stroke="#000000" stroke-opacity="1" stroke-width="1" stroke-linecap="square" stroke-linejoin="bevel" transform="matrix(0.798952,0,0,0.798952,360.727,7.98952)"
font-family="SimSun" font-size="9" font-weight="400" font-style="normal" 
>
</g>

<g fill="none" stroke="#000000" stroke-opacity="1" stroke-width="1" stroke-linecap="square" stroke-linejoin="bevel" transform="matrix(0.798952,0,0,0.798952,360.727,7.98952)"
font-family="SimSun" font-size="9" font-weight="400" font-style="normal" 
>
<text fill="#000000" fill-opacity="1" stroke="none" xml:space="preserve" x="0" y="15" font-family="SimSun" font-size="9" font-weight="400" font-style="normal" 
 >action:3:set_key_value</text>
</g>

<g fill="none" stroke="#000000" stroke-opacity="1" stroke-width="1" stroke-linecap="square" stroke-linejoin="bevel" transform="matrix(0.798952,0,0,0.798952,360.727,7.98952)"
font-family="SimSun" font-size="9" font-weight="400" font-style="normal" 
>
</g>

<g fill="none" stroke="#000000" stroke-opacity="1" stroke-width="1" stroke-linecap="square" stroke-linejoin="bevel" transform="matrix(0.798952,0,0,0.798952,656.339,55.1277)"
font-family="SimSun" font-size="9" font-weight="400" font-style="normal" 
>
</g>

<g fill="none" stroke="#000000" stroke-opacity="1" stroke-width="1" stroke-linecap="square" stroke-linejoin="bevel" transform="matrix(0.798952,0,0,0.798952,656.339,55.1277)"
font-family="SimSun" font-size="9" font-weight="400" font-style="normal" 
>
</g>

<g fill="none" stroke="#000000" stroke-opacity="1" stroke-width="1" stroke-linecap="square" stroke-linejoin="bevel" transform="matrix(0.798952,0,0,0.798952,656.339,55.1277)"
font-family="SimSun" font-size="9" font-weight="400" font-style="normal" 
>
</g>

<g fill="#7f7f7f" fill-opacity="1" stroke="#000000" stroke-opacity="1" stroke-width="1" stroke-linecap="square" stroke-linejoin="bevel" transform="matrix(0.798952,0,0,0.798952,656.339,55.1277)"
font-family="SimSun" font-size="9" font-weight="400" font-style="normal" 
>
<path vector-effect="none" fill-rule="evenodd" d="M-122.5,-14.25 C-122.5,-16.8734 -120.373,-19 -117.75,-19 L117.75,-19 C120.373,-19 122.5,-16.8734 122.5,-14.25 L122.5,14.25 C122.5,16.8734 120.373,19 117.75,19 L-117.75,19 C-120.373,19 -122.5,16.8734 -122.5,14.25 L-122.5,-14.25"/>
</g>

<g fill="none" stroke="#000000" stroke-opacity="1" stroke-width="1" stroke-linecap="square" stroke-linejoin="bevel" transform="matrix(0.798952,0,0,0.798952,656.339,55.1277)"
font-family="SimSun" font-size="9" font-weight="400" font-style="normal" 
>
</g>

<g fill="none" stroke="#000000" stroke-opacity="1" stroke-width="1" stroke-linecap="square" stroke-linejoin="bevel" transform="matrix(0.798952,0,0,0.798952,566.457,47.9371)"
font-family="SimSun" font-size="9" font-weight="400" font-style="normal" 
>
</g>

<g fill="none" stroke="#000000" stroke-opacity="1" stroke-width="1" stroke-linecap="square" stroke-linejoin="bevel" transform="matrix(0.798952,0,0,0.798952,566.457,47.9371)"
font-family="SimSun" font-size="9" font-weight="400" font-style="normal" 
>
<text fill="#000000" fill-opacity="1" stroke="none" xml:space="preserve" x="0" y="15" font-family="SimSun" font-size="9" font-weight="400" font-style="normal" 
 >action:5:number_less_than</text>
</g>

<g fill="none" stroke="#000000" stroke-opacity="1" stroke-width="1" stroke-linecap="square" stroke-linejoin="bevel" transform="matrix(0.798952,0,0,0.798952,566.457,47.9371)"
font-family="SimSun" font-size="9" font-weight="400" font-style="normal" 
>
</g>

<g fill="none" stroke="#000000" stroke-opacity="1" stroke-width="1" stroke-linecap="square" stroke-linejoin="bevel" transform="matrix(0.798952,0,0,0.798952,837.701,95.0753)"
font-family="SimSun" font-size="9" font-weight="400" font-style="normal" 
>
</g>

<g fill="none" stroke="#000000" stroke-opacity="1" stroke-width="1" stroke-linecap="square" stroke-linejoin="bevel" transform="matrix(0.798952,0,0,0.798952,837.701,95.0753)"
font-family="SimSun" font-size="9" font-weight="400" font-style="normal" 
>
</g>

<g fill="none" stroke="#000000" stroke-opacity="1" stroke-width="1" stroke-linecap="square" stroke-linejoin="bevel" transform="matrix(0.798952,0,0,0.798952,837.701,95.0753)"
font-family="SimSun" font-size="9" font-weight="400" font-style="normal" 
>
</g>

<g fill="#7f7f7f" fill-opacity="1" stroke="#000000" stroke-opacity="1" stroke-width="1" stroke-linecap="square" stroke-linejoin="bevel" transform="matrix(0.798952,0,0,0.798952,837.701,95.0753)"
font-family="SimSun" font-size="9" font-weight="400" font-style="normal" 
>
<path vector-effect="none" fill-rule="evenodd" d="M-64,-14.25 C-64,-16.8734 -61.8734,-19 -59.25,-19 L59.25,-19 C61.8734,-19 64,-16.8734 64,-14.25 L64,14.25 C64,16.8734 61.8734,19 59.25,19 L-59.25,19 C-61.8734,19 -64,16.8734 -64,14.25 L-64,-14.25"/>
</g>

<g fill="none" stroke="#000000" stroke-opacity="1" stroke-width="1" stroke-linecap="square" stroke-linejoin="bevel" transform="matrix(0.798952,0,0,0.798952,837.701,95.0753)"
font-family="SimSun" font-size="9" font-weight="400" font-style="normal" 
>
</g>

<g fill="none" stroke="#000000" stroke-opacity="1" stroke-width="1" stroke-linecap="square" stroke-linejoin="bevel" transform="matrix(0.798952,0,0,0.798952,794.558,87.8847)"
font-family="SimSun" font-size="9" font-weight="400" font-style="normal" 
>
</g>

<g fill="none" stroke="#000000" stroke-opacity="1" stroke-width="1" stroke-linecap="square" stroke-linejoin="bevel" transform="matrix(0.798952,0,0,0.798952,794.558,87.8847)"
font-family="SimSun" font-size="9" font-weight="400" font-style="normal" 
>
<text fill="#000000" fill-opacity="1" stroke="none" xml:space="preserve" x="0" y="15" font-family="SimSun" font-size="9" font-weight="400" font-style="normal" 
 >action:7:log</text>
</g>

<g fill="none" stroke="#000000" stroke-opacity="1" stroke-width="1" stroke-linecap="square" stroke-linejoin="bevel" transform="matrix(0.798952,0,0,0.798952,794.558,87.8847)"
font-family="SimSun" font-size="9" font-weight="400" font-style="normal" 
>
</g>

<g fill="none" stroke="#000000" stroke-opacity="1" stroke-width="1" stroke-linecap="square" stroke-linejoin="bevel" transform="matrix(0.798952,0,0,0.798952,837.701,135.023)"
font-family="SimSun" font-size="9" font-weight="400" font-style="normal" 
>
</g>

<g fill="none" stroke="#000000" stroke-opacity="1" stroke-width="1" stroke-linecap="square" stroke-linejoin="bevel" transform="matrix(0.798952,0,0,0.798952,837.701,135.023)"
font-family="SimSun" font-size="9" font-weight="400" font-style="normal" 
>
</g>

<g fill="none" stroke="#000000" stroke-opacity="1" stroke-width="1" stroke-linecap="square" stroke-linejoin="bevel" transform="matrix(0.798952,0,0,0.798952,837.701,135.023)"
font-family="SimSun" font-size="9" font-weight="400" font-style="normal" 
>
</g>

<g fill="#7f7f7f" fill-opacity="1" stroke="#000000" stroke-opacity="1" stroke-width="1" stroke-linecap="square" stroke-linejoin="bevel" transform="matrix(0.798952,0,0,0.798952,837.701,135.023)"
font-family="SimSun" font-size="9" font-weight="400" font-style="normal" 
>
<path vector-effect="none" fill-rule="evenodd" d="M-64,-14.25 C-64,-16.8734 -61.8734,-19 -59.25,-19 L59.25,-19 C61.8734,-19 64,-16.8734 64,-14.25 L64,14.25 C64,16.8734 61.8734,19 59.25,19 L-59.25,19 C-61.8734,19 -64,16.8734 -64,14.25 L-64,-14.25"/>
</g>

<g fill="none" stroke="#000000" stroke-opacity="1" stroke-width="1" stroke-linecap="square" stroke-linejoin="bevel" transform="matrix(0.798952,0,0,0.798952,837.701,135.023)"
font-family="SimSun" font-size="9" font-weight="400" font-style="normal" 
>
</g>

<g fill="none" stroke="#000000" stroke-opacity="1" stroke-width="1" stroke-linecap="square" stroke-linejoin="bevel" transform="matrix(0.798952,0,0,0.798952,794.558,127.832)"
font-family="SimSun" font-size="9" font-weight="400" font-style="normal" 
>
</g>

<g fill="none" stroke="#000000" stroke-opacity="1" stroke-width="1" stroke-linecap="square" stroke-linejoin="bevel" transform="matrix(0.798952,0,0,0.798952,794.558,127.832)"
font-family="SimSun" font-size="9" font-weight="400" font-style="normal" 
>
<text fill="#000000" fill-opacity="1" stroke="none" xml:space="preserve" x="0" y="15" font-family="SimSun" font-size="9" font-weight="400" font-style="normal" 
 >action:8:log</text>
</g>

<g fill="none" stroke="#000000" stroke-opacity="1" stroke-width="1" stroke-linecap="square" stroke-linejoin="bevel" transform="matrix(0.798952,0,0,0.798952,794.558,127.832)"
font-family="SimSun" font-size="9" font-weight="400" font-style="normal" 
>
</g>

<g fill="none" stroke="#000000" stroke-opacity="1" stroke-width="1" stroke-linecap="square" stroke-linejoin="bevel" transform="matrix(0.798952,0,0,0.798952,862.469,174.971)"
font-family="SimSun" font-size="9" font-weight="400" font-style="normal" 
>
</g>

<g fill="none" stroke="#000000" stroke-opacity="1" stroke-width="1" stroke-linecap="square" stroke-linejoin="bevel" transform="matrix(0.798952,0,0,0.798952,862.469,174.971)"
font-family="SimSun" font-size="9" font-weight="400" font-style="normal" 
>
</g>

<g fill="none" stroke="#000000" stroke-opacity="1" stroke-width="1" stroke-linecap="square" stroke-linejoin="bevel" transform="matrix(0.798952,0,0,0.798952,862.469,174.971)"
font-family="SimSun" font-size="9" font-weight="400" font-style="normal" 
>
</g>

<g fill="#7f7f7f" fill-opacity="1" stroke="#000000" stroke-opacity="1" stroke-width="1" stroke-linecap="square" stroke-linejoin="bevel" transform="matrix(0.798952,0,0,0.798952,862.469,174.971)"
font-family="SimSun" font-size="9" font-weight="400" font-style="normal" 
>
<path vector-effect="none" fill-rule="evenodd" d="M-95.5,-14.25 C-95.5,-16.8734 -93.3734,-19 -90.75,-19 L90.75,-19 C93.3734,-19 95.5,-16.8734 95.5,-14.25 L95.5,14.25 C95.5,16.8734 93.3734,19 90.75,19 L-90.75,19 C-93.3734,19 -95.5,16.8734 -95.5,14.25 L-95.5,-14.25"/>
</g>

<g fill="none" stroke="#000000" stroke-opacity="1" stroke-width="1" stroke-linecap="square" stroke-linejoin="bevel" transform="matrix(0.798952,0,0,0.798952,862.469,174.971)"
font-family="SimSun" font-size="9" font-weight="400" font-style="normal" 
>
</g>

<g fill="none" stroke="#000000" stroke-opacity="1" stroke-width="1" stroke-linecap="square" stroke-linejoin="bevel" transform="matrix(0.798952,0,0,0.798952,794.158,167.78)"
font-family="SimSun" font-size="9" font-weight="400" font-style="normal" 
>
</g>

<g fill="none" stroke="#000000" stroke-opacity="1" stroke-width="1" stroke-linecap="square" stroke-linejoin="bevel" transform="matrix(0.798952,0,0,0.798952,794.158,167.78)"
font-family="SimSun" font-size="9" font-weight="400" font-style="normal" 
>
<text fill="#000000" fill-opacity="1" stroke="none" xml:space="preserve" x="0" y="15" font-family="SimSun" font-size="9" font-weight="400" font-style="normal" 
 >action:9:number_add</text>
</g>

<g fill="none" stroke="#000000" stroke-opacity="1" stroke-width="1" stroke-linecap="square" stroke-linejoin="bevel" transform="matrix(0.798952,0,0,0.798952,794.158,167.78)"
font-family="SimSun" font-size="9" font-weight="400" font-style="normal" 
>
</g>

<g fill="none" stroke="#000000" stroke-opacity="1" stroke-width="1" stroke-linecap="square" stroke-linejoin="bevel" transform="matrix(0.798952,0,0,0.798952,888.035,214.918)"
font-family="SimSun" font-size="9" font-weight="400" font-style="normal" 
>
</g>

<g fill="none" stroke="#000000" stroke-opacity="1" stroke-width="1" stroke-linecap="square" stroke-linejoin="bevel" transform="matrix(0.798952,0,0,0.798952,888.035,214.918)"
font-family="SimSun" font-size="9" font-weight="400" font-style="normal" 
>
</g>

<g fill="none" stroke="#000000" stroke-opacity="1" stroke-width="1" stroke-linecap="square" stroke-linejoin="bevel" transform="matrix(0.798952,0,0,0.798952,888.035,214.918)"
font-family="SimSun" font-size="9" font-weight="400" font-style="normal" 
>
</g>

<g fill="#7f7f7f" fill-opacity="1" stroke="#000000" stroke-opacity="1" stroke-width="1" stroke-linecap="square" stroke-linejoin="bevel" transform="matrix(0.798952,0,0,0.798952,888.035,214.918)"
font-family="SimSun" font-size="9" font-weight="400" font-style="normal" 
>
<path vector-effect="none" fill-rule="evenodd" d="M-127,-14.25 C-127,-16.8734 -124.873,-19 -122.25,-19 L122.25,-19 C124.873,-19 127,-16.8734 127,-14.25 L127,14.25 C127,16.8734 124.873,19 122.25,19 L-122.25,19 C-124.873,19 -127,16.8734 -127,14.25 L-127,-14.25"/>
</g>

<g fill="none" stroke="#000000" stroke-opacity="1" stroke-width="1" stroke-linecap="square" stroke-linejoin="bevel" transform="matrix(0.798952,0,0,0.798952,888.035,214.918)"
font-family="SimSun" font-size="9" font-weight="400" font-style="normal" 
>
</g>

<g fill="none" stroke="#000000" stroke-opacity="1" stroke-width="1" stroke-linecap="square" stroke-linejoin="bevel" transform="matrix(0.798952,0,0,0.798952,794.558,207.728)"
font-family="SimSun" font-size="9" font-weight="400" font-style="normal" 
>
</g>

<g fill="none" stroke="#000000" stroke-opacity="1" stroke-width="1" stroke-linecap="square" stroke-linejoin="bevel" transform="matrix(0.798952,0,0,0.798952,794.558,207.728)"
font-family="SimSun" font-size="9" font-weight="400" font-style="normal" 
>
<text fill="#000000" fill-opacity="1" stroke="none" xml:space="preserve" x="0" y="15" font-family="SimSun" font-size="9" font-weight="400" font-style="normal" 
 >action:10:wait_for_seconds</text>
</g>

<g fill="none" stroke="#000000" stroke-opacity="1" stroke-width="1" stroke-linecap="square" stroke-linejoin="bevel" transform="matrix(0.798952,0,0,0.798952,794.558,207.728)"
font-family="SimSun" font-size="9" font-weight="400" font-style="normal" 
>
</g>

<g fill="none" stroke="#000000" stroke-opacity="1" stroke-width="1" stroke-linecap="square" stroke-linejoin="bevel" transform="matrix(0.798952,0,0,0.798952,606.005,154.997)"
font-family="SimSun" font-size="9" font-weight="400" font-style="normal" 
>
</g>

<g fill="none" stroke="#000000" stroke-opacity="1" stroke-width="1" stroke-linecap="square" stroke-linejoin="bevel" transform="matrix(0.798952,0,0,0.798952,606.005,154.997)"
font-family="SimSun" font-size="9" font-weight="400" font-style="normal" 
>
</g>

<g fill="none" stroke="#000000" stroke-opacity="1" stroke-width="1" stroke-linecap="square" stroke-linejoin="bevel" transform="matrix(0.798952,0,0,0.798952,606.005,154.997)"
font-family="SimSun" font-size="9" font-weight="400" font-style="normal" 
>
</g>

<g fill="#ffffff" fill-opacity="1" stroke="#000000" stroke-opacity="1" stroke-width="1" stroke-linecap="square" stroke-linejoin="bevel" transform="matrix(0.798952,0,0,0.798952,606.005,154.997)"
font-family="SimSun" font-size="9" font-weight="400" font-style="normal" 
>
<path vector-effect="none" fill-rule="evenodd" d="M-59.5,-14.25 C-59.5,-16.8734 -57.3734,-19 -54.75,-19 L54.75,-19 C57.3734,-19 59.5,-16.8734 59.5,-14.25 L59.5,14.25 C59.5,16.8734 57.3734,19 54.75,19 L-54.75,19 C-57.3734,19 -59.5,16.8734 -59.5,14.25 L-59.5,-14.25"/>
</g>

<g fill="none" stroke="#000000" stroke-opacity="1" stroke-width="1" stroke-linecap="square" stroke-linejoin="bevel" transform="matrix(0.798952,0,0,0.798952,606.005,154.997)"
font-family="SimSun" font-size="9" font-weight="400" font-style="normal" 
>
</g>

<g fill="none" stroke="#000000" stroke-opacity="1" stroke-width="1" stroke-linecap="square" stroke-linejoin="bevel" transform="matrix(0.798952,0,0,0.798952,566.457,147.806)"
font-family="SimSun" font-size="9" font-weight="400" font-style="normal" 
>
</g>

<g fill="none" stroke="#000000" stroke-opacity="1" stroke-width="1" stroke-linecap="square" stroke-linejoin="bevel" transform="matrix(0.798952,0,0,0.798952,566.457,147.806)"
font-family="SimSun" font-size="9" font-weight="400" font-style="normal" 
>
<text fill="#000000" fill-opacity="1" stroke="none" xml:space="preserve" x="0" y="15" font-family="SimSun" font-size="9" font-weight="400" font-style="normal" 
 >sequence:6:</text>
</g>

<g fill="none" stroke="#000000" stroke-opacity="1" stroke-width="1" stroke-linecap="square" stroke-linejoin="bevel" transform="matrix(0.798952,0,0,0.798952,566.457,147.806)"
font-family="SimSun" font-size="9" font-weight="400" font-style="normal" 
>
</g>

<g fill="none" stroke="#000000" stroke-opacity="1" stroke-width="1" stroke-linecap="square" stroke-linejoin="bevel" transform="matrix(0.798952,0,0,0.798952,407.066,105.062)"
font-family="SimSun" font-size="9" font-weight="400" font-style="normal" 
>
</g>

<g fill="none" stroke="#000000" stroke-opacity="1" stroke-width="1" stroke-linecap="square" stroke-linejoin="bevel" transform="matrix(0.798952,0,0,0.798952,407.066,105.062)"
font-family="SimSun" font-size="9" font-weight="400" font-style="normal" 
>
</g>

<g fill="none" stroke="#000000" stroke-opacity="1" stroke-width="1" stroke-linecap="square" stroke-linejoin="bevel" transform="matrix(0.798952,0,0,0.798952,407.066,105.062)"
font-family="SimSun" font-size="9" font-weight="400" font-style="normal" 
>
</g>

<g fill="#00ff00" fill-opacity="1" stroke="#000000" stroke-opacity="1" stroke-width="1" stroke-linecap="square" stroke-linejoin="bevel" transform="matrix(0.798952,0,0,0.798952,407.066,105.062)"
font-family="SimSun" font-size="9" font-weight="400" font-style="normal" 
>
<path vector-effect="none" fill-rule="evenodd" d="M-68.5,-14.25 C-68.5,-16.8734 -66.3734,-19 -63.75,-19 L63.75,-19 C66.3734,-19 68.5,-16.8734 68.5,-14.25 L68.5,14.25 C68.5,16.8734 66.3734,19 63.75,19 L-63.75,19 C-66.3734,19 -68.5,16.8734 -68.5,14.25 L-68.5,-14.25"/>
</g>

<g fill="none" stroke="#000000" stroke-opacity="1" stroke-width="1" stroke-linecap="square" stroke-linejoin="bevel" transform="matrix(0.798952,0,0,0.798952,407.066,105.062)"
font-family="SimSun" font-size="9" font-weight="400" font-style="normal" 
>
</g>

<g fill="none" stroke="#000000" stroke-opacity="1" stroke-width="1" stroke-linecap="square" stroke-linejoin="bevel" transform="matrix(0.798952,0,0,0.798952,360.327,97.8716)"
font-family="SimSun" font-size="9" font-weight="400" font-style="normal" 
>
</g>

<g fill="none" stroke="#000000" stroke-opacity="1" stroke-width="1" stroke-linecap="square" stroke-linejoin="bevel" transform="matrix(0.798952,0,0,0.798952,360.327,97.8716)"
font-family="SimSun" font-size="9" font-weight="400" font-style="normal" 
>
<text fill="#000000" fill-opacity="1" stroke="none" xml:space="preserve" x="0" y="15" font-family="SimSun" font-size="9" font-weight="400" font-style="normal" 
 >while_loop:4:</text>
</g>

<g fill="none" stroke="#000000" stroke-opacity="1" stroke-width="1" stroke-linecap="square" stroke-linejoin="bevel" transform="matrix(0.798952,0,0,0.798952,360.327,97.8716)"
font-family="SimSun" font-size="9" font-weight="400" font-style="normal" 
>
</g>

<g fill="none" stroke="#000000" stroke-opacity="1" stroke-width="1" stroke-linecap="square" stroke-linejoin="bevel" transform="matrix(0.798952,0,0,0.798952,407.066,254.866)"
font-family="SimSun" font-size="9" font-weight="400" font-style="normal" 
>
</g>

<g fill="none" stroke="#000000" stroke-opacity="1" stroke-width="1" stroke-linecap="square" stroke-linejoin="bevel" transform="matrix(0.798952,0,0,0.798952,407.066,254.866)"
font-family="SimSun" font-size="9" font-weight="400" font-style="normal" 
>
</g>

<g fill="none" stroke="#000000" stroke-opacity="1" stroke-width="1" stroke-linecap="square" stroke-linejoin="bevel" transform="matrix(0.798952,0,0,0.798952,407.066,254.866)"
font-family="SimSun" font-size="9" font-weight="400" font-style="normal" 
>
</g>

<g fill="#7f7f7f" fill-opacity="1" stroke="#000000" stroke-opacity="1" stroke-width="1" stroke-linecap="square" stroke-linejoin="bevel" transform="matrix(0.798952,0,0,0.798952,407.066,254.866)"
font-family="SimSun" font-size="9" font-weight="400" font-style="normal" 
>
<path vector-effect="none" fill-rule="evenodd" d="M-68.5,-14.25 C-68.5,-16.8734 -66.3734,-19 -63.75,-19 L63.75,-19 C66.3734,-19 68.5,-16.8734 68.5,-14.25 L68.5,14.25 C68.5,16.8734 66.3734,19 63.75,19 L-63.75,19 C-66.3734,19 -68.5,16.8734 -68.5,14.25 L-68.5,-14.25"/>
</g>

<g fill="none" stroke="#000000" stroke-opacity="1" stroke-width="1" stroke-linecap="square" stroke-linejoin="bevel" transform="matrix(0.798952,0,0,0.798952,407.066,254.866)"
font-family="SimSun" font-size="9" font-weight="400" font-style="normal" 
>
</g>

<g fill="none" stroke="#000000" stroke-opacity="1" stroke-width="1" stroke-linecap="square" stroke-linejoin="bevel" transform="matrix(0.798952,0,0,0.798952,360.327,247.675)"
font-family="SimSun" font-size="9" font-weight="400" font-style="normal" 
>
</g>

<g fill="none" stroke="#000000" stroke-opacity="1" stroke-width="1" stroke-linecap="square" stroke-linejoin="bevel" transform="matrix(0.798952,0,0,0.798952,360.327,247.675)"
font-family="SimSun" font-size="9" font-weight="400" font-style="normal" 
>
<text fill="#000000" fill-opacity="1" stroke="none" xml:space="preserve" x="0" y="15" font-family="SimSun" font-size="9" font-weight="400" font-style="normal" 
 >action:11:log</text>
</g>

<g fill="none" stroke="#000000" stroke-opacity="1" stroke-width="1" stroke-linecap="square" stroke-linejoin="bevel" transform="matrix(0.798952,0,0,0.798952,360.327,247.675)"
font-family="SimSun" font-size="9" font-weight="400" font-style="normal" 
>
</g>

<g fill="none" stroke="#000000" stroke-opacity="1" stroke-width="1" stroke-linecap="square" stroke-linejoin="bevel" transform="matrix(0.798952,0,0,0.798952,272.842,135.023)"
font-family="SimSun" font-size="9" font-weight="400" font-style="normal" 
>
</g>

<g fill="none" stroke="#000000" stroke-opacity="1" stroke-width="1" stroke-linecap="square" stroke-linejoin="bevel" transform="matrix(0.798952,0,0,0.798952,272.842,135.023)"
font-family="SimSun" font-size="9" font-weight="400" font-style="normal" 
>
</g>

<g fill="none" stroke="#000000" stroke-opacity="1" stroke-width="1" stroke-linecap="square" stroke-linejoin="bevel" transform="matrix(0.798952,0,0,0.798952,272.842,135.023)"
font-family="SimSun" font-size="9" font-weight="400" font-style="normal" 
>
</g>

<g fill="#ffffff" fill-opacity="1" stroke="#000000" stroke-opacity="1" stroke-width="1" stroke-linecap="square" stroke-linejoin="bevel" transform="matrix(0.798952,0,0,0.798952,272.842,135.023)"
font-family="SimSun" font-size="9" font-weight="400" font-style="normal" 
>
<path vector-effect="none" fill-rule="evenodd" d="M-59.5,-14.25 C-59.5,-16.8734 -57.3734,-19 -54.75,-19 L54.75,-19 C57.3734,-19 59.5,-16.8734 59.5,-14.25 L59.5,14.25 C59.5,16.8734 57.3734,19 54.75,19 L-54.75,19 C-57.3734,19 -59.5,16.8734 -59.5,14.25 L-59.5,-14.25"/>
</g>

<g fill="none" stroke="#000000" stroke-opacity="1" stroke-width="1" stroke-linecap="square" stroke-linejoin="bevel" transform="matrix(0.798952,0,0,0.798952,272.842,135.023)"
font-family="SimSun" font-size="9" font-weight="400" font-style="normal" 
>
</g>

<g fill="none" stroke="#000000" stroke-opacity="1" stroke-width="1" stroke-linecap="square" stroke-linejoin="bevel" transform="matrix(0.798952,0,0,0.798952,233.294,127.832)"
font-family="SimSun" font-size="9" font-weight="400" font-style="normal" 
>
</g>

<g fill="none" stroke="#000000" stroke-opacity="1" stroke-width="1" stroke-linecap="square" stroke-linejoin="bevel" transform="matrix(0.798952,0,0,0.798952,233.294,127.832)"
font-family="SimSun" font-size="9" font-weight="400" font-style="normal" 
>
<text fill="#000000" fill-opacity="1" stroke="none" xml:space="preserve" x="0" y="15" font-family="SimSun" font-size="9" font-weight="400" font-style="normal" 
 >sequence:2:</text>
</g>

<g fill="none" stroke="#000000" stroke-opacity="1" stroke-width="1" stroke-linecap="square" stroke-linejoin="bevel" transform="matrix(0.798952,0,0,0.798952,233.294,127.832)"
font-family="SimSun" font-size="9" font-weight="400" font-style="normal" 
>
</g>

<g fill="none" stroke="#000000" stroke-opacity="1" stroke-width="1" stroke-linecap="square" stroke-linejoin="bevel" transform="matrix(0.798952,0,0,0.798952,145.809,135.023)"
font-family="SimSun" font-size="9" font-weight="400" font-style="normal" 
>
</g>

<g fill="none" stroke="#000000" stroke-opacity="1" stroke-width="1" stroke-linecap="square" stroke-linejoin="bevel" transform="matrix(0.798952,0,0,0.798952,145.809,135.023)"
font-family="SimSun" font-size="9" font-weight="400" font-style="normal" 
>
</g>

<g fill="none" stroke="#000000" stroke-opacity="1" stroke-width="1" stroke-linecap="square" stroke-linejoin="bevel" transform="matrix(0.798952,0,0,0.798952,145.809,135.023)"
font-family="SimSun" font-size="9" font-weight="400" font-style="normal" 
>
</g>

<g fill="#ffffff" fill-opacity="1" stroke="#000000" stroke-opacity="1" stroke-width="1" stroke-linecap="square" stroke-linejoin="bevel" transform="matrix(0.798952,0,0,0.798952,145.809,135.023)"
font-family="SimSun" font-size="9" font-weight="400" font-style="normal" 
>
<path vector-effect="none" fill-rule="evenodd" d="M-59.5,-14.25 C-59.5,-16.8734 -57.3734,-19 -54.75,-19 L54.75,-19 C57.3734,-19 59.5,-16.8734 59.5,-14.25 L59.5,14.25 C59.5,16.8734 57.3734,19 54.75,19 L-54.75,19 C-57.3734,19 -59.5,16.8734 -59.5,14.25 L-59.5,-14.25"/>
</g>

<g fill="none" stroke="#000000" stroke-opacity="1" stroke-width="1" stroke-linecap="square" stroke-linejoin="bevel" transform="matrix(0.798952,0,0,0.798952,145.809,135.023)"
font-family="SimSun" font-size="9" font-weight="400" font-style="normal" 
>
</g>

<g fill="none" stroke="#000000" stroke-opacity="1" stroke-width="1" stroke-linecap="square" stroke-linejoin="bevel" transform="matrix(0.798952,0,0,0.798952,106.261,127.832)"
font-family="SimSun" font-size="9" font-weight="400" font-style="normal" 
>
</g>

<g fill="none" stroke="#000000" stroke-opacity="1" stroke-width="1" stroke-linecap="square" stroke-linejoin="bevel" transform="matrix(0.798952,0,0,0.798952,106.261,127.832)"
font-family="SimSun" font-size="9" font-weight="400" font-style="normal" 
>
<text fill="#000000" fill-opacity="1" stroke="none" xml:space="preserve" x="0" y="15" font-family="SimSun" font-size="9" font-weight="400" font-style="normal" 
 >sequence:1:</text>
</g>

<g fill="none" stroke="#000000" stroke-opacity="1" stroke-width="1" stroke-linecap="square" stroke-linejoin="bevel" transform="matrix(0.798952,0,0,0.798952,106.261,127.832)"
font-family="SimSun" font-size="9" font-weight="400" font-style="normal" 
>
</g>

<g fill="none" stroke="#000000" stroke-opacity="1" stroke-width="1" stroke-linecap="square" stroke-linejoin="bevel" transform="matrix(0.798952,0,0,0.798952,33.1565,135.023)"
font-family="SimSun" font-size="9" font-weight="400" font-style="normal" 
>
</g>

<g fill="none" stroke="#000000" stroke-opacity="1" stroke-width="1" stroke-linecap="square" stroke-linejoin="bevel" transform="matrix(0.798952,0,0,0.798952,33.1565,135.023)"
font-family="SimSun" font-size="9" font-weight="400" font-style="normal" 
>
</g>

<g fill="none" stroke="#000000" stroke-opacity="1" stroke-width="1" stroke-linecap="square" stroke-linejoin="bevel" transform="matrix(0.798952,0,0,0.798952,33.1565,135.023)"
font-family="SimSun" font-size="9" font-weight="400" font-style="normal" 
>
</g>

<g fill="#ff0000" fill-opacity="1" stroke="#000000" stroke-opacity="1" stroke-width="1" stroke-linecap="square" stroke-linejoin="bevel" transform="matrix(0.798952,0,0,0.798952,33.1565,135.023)"
font-family="SimSun" font-size="9" font-weight="400" font-style="normal" 
>
<path vector-effect="none" fill-rule="evenodd" d="M-41.5,-14.25 C-41.5,-16.8734 -39.3734,-19 -36.75,-19 L36.75,-19 C39.3734,-19 41.5,-16.8734 41.5,-14.25 L41.5,14.25 C41.5,16.8734 39.3734,19 36.75,19 L-36.75,19 C-39.3734,19 -41.5,16.8734 -41.5,14.25 L-41.5,-14.25"/>
</g>

<g fill="none" stroke="#000000" stroke-opacity="1" stroke-width="1" stroke-linecap="square" stroke-linejoin="bevel" transform="matrix(0.798952,0,0,0.798952,33.1565,135.023)"
font-family="SimSun" font-size="9" font-weight="400" font-style="normal" 
>
</g>

<g fill="none" stroke="#000000" stroke-opacity="1" stroke-width="1" stroke-linecap="square" stroke-linejoin="bevel" transform="matrix(0.798952,0,0,0.798952,7.98952,127.832)"
font-family="SimSun" font-size="9" font-weight="400" font-style="normal" 
>
</g>

<g fill="none" stroke="#000000" stroke-opacity="1" stroke-width="1" stroke-linecap="square" stroke-linejoin="bevel" transform="matrix(0.798952,0,0,0.798952,7.98952,127.832)"
font-family="SimSun" font-size="9" font-weight="400" font-style="normal" 
>
<text fill="#000000" fill-opacity="1" stroke="none" xml:space="preserve" x="0" y="15" font-family="SimSun" font-size="9" font-weight="400" font-style="normal" 
 >root:0:</text>
</g>

<g fill="none" stroke="#000000" stroke-opacity="1" stroke-width="1" stroke-linecap="square" stroke-linejoin="bevel" transform="matrix(0.798952,0,0,0.798952,7.98952,127.832)"
font-family="SimSun" font-size="9" font-weight="400" font-style="normal" 
>
</g>

<g fill="none" stroke="#000000" stroke-opacity="1" stroke-width="1" stroke-linecap="square" stroke-linejoin="bevel" transform="matrix(0.798952,0,0,0.798952,0.399476,135.023)"
font-family="SimSun" font-size="9" font-weight="400" font-style="normal" 
>
<path vector-effect="none" fill-rule="evenodd" d="M82.5,0 C102,0 102,0 122.5,0 "/>
</g>

<g fill="none" stroke="#000000" stroke-opacity="1" stroke-width="1" stroke-linecap="square" stroke-linejoin="bevel" transform="matrix(0.798952,0,0,0.798952,0.399476,135.023)"
font-family="SimSun" font-size="9" font-weight="400" font-style="normal" 
>
</g>

<g fill="none" stroke="#000000" stroke-opacity="1" stroke-width="1" stroke-linecap="square" stroke-linejoin="bevel" transform="matrix(0.798952,0,0,0.798952,0.399476,135.023)"
font-family="SimSun" font-size="9" font-weight="400" font-style="normal" 
>
<path vector-effect="none" fill-rule="evenodd" d="M241.5,0 C261,0 261,0 281.5,0 "/>
</g>

<g fill="none" stroke="#000000" stroke-opacity="1" stroke-width="1" stroke-linecap="square" stroke-linejoin="bevel" transform="matrix(0.798952,0,0,0.798952,0.399476,135.023)"
font-family="SimSun" font-size="9" font-weight="400" font-style="normal" 
>
</g>

<g fill="none" stroke="#000000" stroke-opacity="1" stroke-width="1" stroke-linecap="square" stroke-linejoin="bevel" transform="matrix(0.798952,0,0,0.798952,0.399476,135.023)"
font-family="SimSun" font-size="9" font-weight="400" font-style="normal" 
>
<path vector-effect="none" fill-rule="evenodd" d="M400.5,0 C420,0 420,-150 441,-150 "/>
</g>

<g fill="none" stroke="#000000" stroke-opacity="1" stroke-width="1" stroke-linecap="square" stroke-linejoin="bevel" transform="matrix(0.798952,0,0,0.798952,0.399476,135.023)"
font-family="SimSun" font-size="9" font-weight="400" font-style="normal" 
>
</g>

<g fill="none" stroke="#000000" stroke-opacity="1" stroke-width="1" stroke-linecap="square" stroke-linejoin="bevel" transform="matrix(0.798952,0,0,0.798952,0.399476,135.023)"
font-family="SimSun" font-size="9" font-weight="400" font-style="normal" 
>
<path vector-effect="none" fill-rule="evenodd" d="M400.5,0 C420,0 420,-37 440.5,-37.5 "/>
</g>

<g fill="none" stroke="#000000" stroke-opacity="1" stroke-width="1" stroke-linecap="square" stroke-linejoin="bevel" transform="matrix(0.798952,0,0,0.798952,0.399476,135.023)"
font-family="SimSun" font-size="9" font-weight="400" font-style="normal" 
>
</g>

<g fill="none" stroke="#000000" stroke-opacity="1" stroke-width="1" stroke-linecap="square" stroke-linejoin="bevel" transform="matrix(0.798952,0,0,0.798952,0.399476,135.023)"
font-family="SimSun" font-size="9" font-weight="400" font-style="normal" 
>
<path vector-effect="none" fill-rule="evenodd" d="M577.5,-37.5 C638,-37 638,-100 698.5,-100 "/>
</g>

<g fill="none" stroke="#000000" stroke-opacity="1" stroke-width="1" stroke-linecap="square" stroke-linejoin="bevel" transform="matrix(0.798952,0,0,0.798952,0.399476,135.023)"
font-family="SimSun" font-size="9" font-weight="400" font-style="normal" 
>
</g>

<g fill="none" stroke="#000000" stroke-opacity="1" stroke-width="1" stroke-linecap="square" stroke-linejoin="bevel" transform="matrix(0.798952,0,0,0.798952,0.399476,135.023)"
font-family="SimSun" font-size="9" font-weight="400" font-style="normal" 
>
<path vector-effect="none" fill-rule="evenodd" d="M577.5,-37.5 C638,-37 638,25 698.5,25 "/>
</g>

<g fill="none" stroke="#000000" stroke-opacity="1" stroke-width="1" stroke-linecap="square" stroke-linejoin="bevel" transform="matrix(0.798952,0,0,0.798952,0.399476,135.023)"
font-family="SimSun" font-size="9" font-weight="400" font-style="normal" 
>
</g>

<g fill="none" stroke="#000000" stroke-opacity="1" stroke-width="1" stroke-linecap="square" stroke-linejoin="bevel" transform="matrix(0.798952,0,0,0.798952,0.399476,135.023)"
font-family="SimSun" font-size="9" font-weight="400" font-style="normal" 
>
<path vector-effect="none" fill-rule="evenodd" d="M817.5,25 C900,25 900,-50 984,-50 "/>
</g>

<g fill="none" stroke="#000000" stroke-opacity="1" stroke-width="1" stroke-linecap="square" stroke-linejoin="bevel" transform="matrix(0.798952,0,0,0.798952,0.399476,135.023)"
font-family="SimSun" font-size="9" font-weight="400" font-style="normal" 
>
</g>

<g fill="none" stroke="#000000" stroke-opacity="1" stroke-width="1" stroke-linecap="square" stroke-linejoin="bevel" transform="matrix(0.798952,0,0,0.798952,0.399476,135.023)"
font-family="SimSun" font-size="9" font-weight="400" font-style="normal" 
>
<path vector-effect="none" fill-rule="evenodd" d="M817.5,25 C900,25 900,0 984,0 "/>
</g>

<g fill="none" stroke="#000000" stroke-opacity="1" stroke-width="1" stroke-linecap="square" stroke-linejoin="bevel" transform="matrix(0.798952,0,0,0.798952,0.399476,135.023)"
font-family="SimSun" font-size="9" font-weight="400" font-style="normal" 
>
</g>

<g fill="none" stroke="#000000" stroke-opacity="1" stroke-width="1" stroke-linecap="square" stroke-linejoin="bevel" transform="matrix(0.798952,0,0,0.798952,0.399476,135.023)"
font-family="SimSun" font-size="9" font-weight="400" font-style="normal" 
>
<path vector-effect="none" fill-rule="evenodd" d="M817.5,25 C900,25 900,50 983.5,50 "/>
</g>

<g fill="none" stroke="#000000" stroke-opacity="1" stroke-width="1" stroke-linecap="square" stroke-linejoin="bevel" transform="matrix(0.798952,0,0,0.798952,0.399476,135.023)"
font-family="SimSun" font-size="9" font-weight="400" font-style="normal" 
>
</g>

<g fill="none" stroke="#000000" stroke-opacity="1" stroke-width="1" stroke-linecap="square" stroke-linejoin="bevel" transform="matrix(0.798952,0,0,0.798952,0.399476,135.023)"
font-family="SimSun" font-size="9" font-weight="400" font-style="normal" 
>
<path vector-effect="none" fill-rule="evenodd" d="M817.5,25 C900,25 900,100 984,100 "/>
</g>

<g fill="none" stroke="#000000" stroke-opacity="1" stroke-width="1" stroke-linecap="square" stroke-linejoin="bevel" transform="matrix(0.798952,0,0,0.798952,0.399476,135.023)"
font-family="SimSun" font-size="9" font-weight="400" font-style="normal" 
>
</g>

<g fill="none" stroke="#000000" stroke-opacity="1" stroke-width="1" stroke-linecap="square" stroke-linejoin="bevel" transform="matrix(0.798952,0,0,0.798952,0.399476,135.023)"
font-family="SimSun" font-size="9" font-weight="400" font-style="normal" 
>
<path vector-effect="none" fill-rule="evenodd" d="M400.5,0 C420,0 420,150 440.5,150 "/>
</g>

<g fill="none" stroke="#000000" stroke-opacity="1" stroke-width="1" stroke-linecap="square" stroke-linejoin="bevel" transform="matrix(0.798952,0,0,0.798952,0.399476,135.023)"
font-family="SimSun" font-size="9" font-weight="400" font-style="normal" 
>
</g>

<g fill="none" stroke="#000000" stroke-opacity="1" stroke-width="1" stroke-linecap="square" stroke-linejoin="bevel" transform="matrix(1,0,0,1,0,0)"
font-family="SimSun" font-size="9" font-weight="400" font-style="normal" 
>
</g>
</g>
</svg>
